<svg xmlns="http://www.w3.org/2000/svg" xml:space="preserve" width="30px" height="30px" version="1.1" style="shape-rendering:geometricPrecision; text-rendering:geometricPrecision; image-rendering:optimizeQuality; fill-rule:evenodd; clip-rule:evenodd"
viewBox="0 0 821 1575"
 xmlns:xlink="http://www.w3.org/1999/xlink">

 <g id="Layer_x0020_1">
  <path class="fil0" d="M372 255c34,-1 63,-14 86,-40 24,-25 35,-55 34,-90 -1,-34 -14,-63 -39,-88 -23,-23 -50,-35 -82,-35l-3 0c-1,0 -2,0 -3,0 -34,1 -63,15 -87,40 -23,26 -35,56 -35,90 0,35 13,64 39,88 25,25 55,37 90,35z"/>
  <path class="fil0" d="M793 677l-183 -100 -150 -240c-29,-35 -64,-53 -107,-53 -28,0 -56,12 -83,37l-227 230c-6,8 -11,18 -13,30l-30 256 0 7c0,15 6,29 17,40 11,11 24,17 40,17 15,0 28,-6 38,-17 10,-11 16,-23 18,-37l24 -220 80 -80 -74 614 -130 290c-4,13 -6,25 -6,36 0,25 8,45 25,62 16,17 37,24 61,22 34,0 58,-16 74,-47l140 -313c0,-3 1,-6 3,-12 2,-6 5,-11 7,-15 2,-4 3,-9 3,-13l17 -150 143 493c16,40 43,59 83,57 23,0 42,-9 59,-25 16,-17 25,-38 25,-62 0,-2 -1,-5 -2,-8 -1,-4 -2,-6 -2,-9l-200 -683 24 -223 56 90c5,6 10,12 17,16l197 110c13,5 22,7 26,7 16,0 29,-6 41,-18 11,-13 16,-27 16,-42 0,-20 -9,-36 -27,-47z"/>
 </g>
</svg>
